<svg viewBox="0 0 258 255.96">
<path fill="#825282" d="M85.83 219.34c-.03-.03-.05-.07-.08-.1-18.54-9.03-33.9-23.68-43.93-41.78l-.01-.01a97.41 97.41 0 0 1-35.78-48.54c-3.08 9.61-4.72 19.88-4.66 30.54.13 24.26 9.02 46.4 23.62 63.36a96.632 96.632 0 0 0 17.05 15.59c15.81 11.32 35.13 17.93 55.96 17.81a95.047 95.047 0 0 0 31.68-5.6c-17.42-6.06-32.58-17.02-43.85-31.27z"></path><path fill="#8075b3" d="M173.18 218.83c.02-.03.04-.05.06-.08-.04.02-.08.04-.13.07-13.15 6.56-27.93 10.28-43.57 10.37a98.48 98.48 0 0 1-43.64-9.87c-.06-.03-.11-.05-.16-.08.03.03.05.07.08.1 11.28 14.25 26.43 25.21 43.84 31.26 17.35-6.25 32.39-17.38 43.52-31.77z"></path><path fill="#a3bedc" d="M85.91 219.32c13.21 6.4 28.01 9.95 43.64 9.87 15.64-.09 30.42-3.81 43.57-10.37a171.13 171.13 0 0 1-43.66-16.53c-13.52 7.54-28.13 13.33-43.55 17.03z"></path><path fill="#56b7b5" d="M251.99 127.54c3.18 9.58 4.93 19.83 4.99 30.48.13 24.26-8.53 46.5-22.95 63.62a96.965 96.965 0 0 1-16.87 15.77c-15.68 11.49-34.93 18.31-55.77 18.43-11.11.06-21.79-1.79-31.74-5.25 17.35-6.24 32.39-17.38 43.51-31.77.02-.03.04-.05.06-.08 18.44-9.23 33.64-24.05 43.48-42.26l.01-.01c16.42-11.97 28.92-29.06 35.28-48.93z"></path><path fill="#2e9c86" d="M216.53 79.23c-.01 0-.01 0 0 0-.01 0-.01 0 0 0 7.8 14.32 12.29 30.76 12.38 48.26.1 17.74-4.33 34.43-12.18 48.97 0 .01-.01.01-.01.02l.01-.01c16.4-11.98 28.9-29.06 35.26-48.94a97.478 97.478 0 0 0-35.46-48.3z"></path><path fill="#80d4be" d="M216.73 176.46c7.85-14.54 12.27-31.23 12.18-48.97-.09-17.5-4.58-33.94-12.38-48.25a176.097 176.097 0 0 1-16.1 48.74c7.64 15.02 13.2 31.31 16.3 48.48z"></path><path fill="#98e1d0" d="M200.42 127.97c-2.51 5-5.26 9.87-8.21 14.58-12.6 20.06-29.11 37.36-48.45 50.79-4.61 3.2-9.38 6.19-14.3 8.94 13.57 7.39 28.23 13 43.66 16.53.04-.02.08-.04.13-.07 18.44-9.23 33.64-24.05 43.48-42.26 0-.01.01-.01.01-.02a175.94 175.94 0 0 0-16.32-48.49z"></path><path fill="#ff7a7f" d="M40.96 80.2c.02-.05.05-.09.07-.13 9.9-18.56 25.36-33.64 44.14-42.93.01-.01.03-.01.04-.02 11.09-14.14 25.98-25.09 43.12-31.26C118.38 2.4 107.71.55 96.59.61c-21.08.12-40.53 7.1-56.31 18.84A96.14 96.14 0 0 0 24.65 34C9.82 51.23.89 73.77 1.02 98.42c.06 10.66 1.81 20.9 4.99 30.48 6.32-19.75 18.71-36.74 34.95-48.7z"></path><path fill="#e8666d" d="m41.8 177.44.01.01c0-.01-.01-.01-.01-.02-8-14.45-12.61-31.1-12.71-48.84-.09-17.51 4.21-34 11.87-48.4a97.493 97.493 0 0 0-34.95 48.7c6.58 19.81 19.26 36.76 35.79 48.55z"></path><path fill="#ffa6b2" d="M41.05 80.13c0-.02-.01-.05-.01-.07-.02.04-.05.09-.07.13-7.66 14.4-11.96 30.9-11.87 48.4.1 17.74 4.7 34.38 12.71 48.84 2.92-17.24 8.33-33.63 15.83-48.78a175.308 175.308 0 0 1-16.59-48.52z"></path><path fill="#ffd1d1" d="M115.04 193.49c-19.52-13.25-36.24-30.41-49.06-50.37-3-4.67-5.78-9.49-8.34-14.46a175.667 175.667 0 0 0-15.83 48.78c0 .01.01.01.01.02 10.03 18.1 25.4 32.75 43.93 41.78.06.03.11.05.16.08 15.42-3.7 30.03-9.48 43.55-17.03a174.45 174.45 0 0 1-14.42-8.8z"></path><path fill="#68c180" d="M128.34 5.84a94.795 94.795 0 0 1 31.68-5.6c21.14-.12 40.71 6.69 56.64 18.3a97.171 97.171 0 0 1 15.68 14.31c15.01 17.06 24.18 39.51 24.32 64.15a98.448 98.448 0 0 1-4.66 30.54 97.46 97.46 0 0 0-35.46-48.31s-.01 0-.01-.01c-10.1-18.51-25.75-33.47-44.68-42.58-.01-.01-.03-.01-.04-.02-11.25-14.01-26.26-24.8-43.47-30.78z"></path><path fill="#ff9852" d="M85.22 37.11c13.06-6.46 27.72-10.11 43.23-10.2s30.21 3.41 43.34 9.72c-11.24-14.02-26.25-24.81-43.45-30.78-17.14 6.16-32.03 17.11-43.12 31.26z"></path><path fill="#ffb985" d="M128.6 53.74a171.053 171.053 0 0 1 43.22-17.09c.01 0 .02 0 .02-.01-.01-.01-.03-.01-.04-.02-13.13-6.31-27.83-9.81-43.34-9.72s-30.17 3.74-43.23 10.2c-.01.01-.03.01-.04.02.01 0 .01 0 .02.01 15.33 3.58 29.9 9.21 43.39 16.61z"></path><path fill="#c5e3a1" d="M128.6 53.74c5.1 2.8 10.04 5.84 14.82 9.13 19.36 13.3 35.93 30.47 48.62 50.41 3.02 4.75 5.82 9.65 8.39 14.7 7.6-15.12 13.09-31.5 16.1-48.74l-.01-.01c-10.1-18.51-25.75-33.47-44.68-42.58-.01 0-.01 0-.02.01a171.03 171.03 0 0 0-43.22 17.08z"></path><path fill="#efcaa8" d="M57.63 128.66c2.5-5.04 5.23-9.93 8.18-14.68 12.47-20.08 28.86-37.43 48.08-50.95 4.74-3.33 9.65-6.44 14.71-9.29a171.001 171.001 0 0 0-43.4-16.61c-.01 0-.01 0-.02-.01-18.78 9.3-34.25 24.38-44.15 42.94 0 .02.01.05.01.07 3.19 17.19 8.85 33.5 16.59 48.53z"></path><path fill="#fff" d="M143.42 62.87c-4.78-3.28-9.72-6.33-14.82-9.13-5.07 2.85-9.97 5.95-14.71 9.29-19.22 13.52-35.6 30.86-48.08 50.95-2.95 4.75-5.68 9.64-8.18 14.68 2.56 4.96 5.34 9.79 8.34 14.46 12.82 19.97 29.54 37.13 49.06 50.37 4.65 3.16 9.46 6.09 14.42 8.79 4.92-2.75 9.69-5.73 14.3-8.94 19.34-13.44 35.85-30.74 48.45-50.79 2.96-4.71 5.7-9.58 8.21-14.58-2.57-5.05-5.37-9.95-8.39-14.7a175.143 175.143 0 0 0-48.6-50.4z"></path></svg>
