<svg width="360" height="110" viewBox="0 0 360 110" fill="none" xmlns="http://www.w3.org/2000/svg">
<path d="M275.89 92.2001C273.31 83.2801 285 90.92 288.36 98.98C288.03 95.96 287.71 92.3801 287.52 88.5201C287.5 88.0401 287.48 87.57 287.46 87.1C285.67 86.67 277.44 84.2201 276.3 74.7801C275.22 65.8301 284.93 74.46 287.33 82.74C287.28 78.46 287.41 74.4701 287.75 70.7801C285.76 70.1301 278.08 67.01 277.64 57.73C277.2 48.53 286.66 58.4401 288.17 67.0101C288.78 62.4701 289.73 58.45 291 54.97C289.96 52 288.31 44.5601 294.85 38.3401C302.88 30.7001 300.25 49.6901 292.57 55.5901C291.32 59.0401 290.46 62.8801 289.91 66.8301C295.07 59.7601 308.37 55.0601 303.71 63.1401C299.52 70.4001 292.39 70.53 289.51 70.25C289.01 75.29 288.93 80.35 289.05 84.87C293.29 77.05 308.71 71.1501 303.75 79.7601C299.32 87.4301 291.63 87.1401 289.12 86.8201C289.14 87.3601 289.16 87.9 289.19 88.42C289.41 92.87 289.8 96.9301 290.18 100.19C293.05 91.7901 307.07 83.37 303.71 92.68C300.66 101.14 292.82 102.1 290.42 102.2C290.88 105.74 294.37 120.28 294.38 120.32L292.72 120.62C292.71 120.58 289.23 106.07 288.77 102.59C286.78 102.41 278.49 101.18 275.89 92.2001Z" fill="url(#paint0_linear_507_368)"/>
<path d="M342.07 93.2698C343.99 86.6198 335.28 92.3198 332.77 98.3298C333.02 96.0798 333.25 93.4098 333.39 90.5198C333.41 90.1598 333.42 89.8098 333.43 89.4598C334.77 89.1398 340.9 87.3098 341.74 80.2698C342.54 73.5898 335.3 80.0297 333.51 86.2197C333.55 83.0297 333.44 80.0498 333.19 77.2998C334.68 76.8098 340.4 74.4798 340.72 67.5598C341.04 60.6998 333.99 68.0898 332.87 74.4898C332.41 71.0998 331.7 68.0998 330.75 65.5098C331.52 63.2898 332.75 57.7498 327.87 53.1098C321.87 47.4198 323.85 61.5797 329.58 65.9697C330.52 68.5397 331.16 71.3997 331.57 74.3497C327.72 69.0797 317.79 65.5797 321.28 71.5997C324.41 77.0097 329.73 77.0998 331.87 76.8898C332.24 80.6498 332.31 84.4198 332.22 87.7998C329.05 81.9698 317.54 77.5798 321.25 83.9998C324.56 89.7198 330.3 89.4998 332.17 89.2498C332.15 89.6498 332.14 90.0498 332.12 90.4398C331.96 93.7598 331.67 96.7897 331.39 99.2197C329.25 92.9497 318.78 86.6898 321.29 93.6298C323.57 99.9398 329.42 100.65 331.21 100.72C330.87 103.36 328.28 114.21 328.27 114.24L329.51 114.46C329.52 114.43 332.11 103.61 332.44 101.01C333.96 100.89 340.14 99.9798 342.07 93.2698Z" fill="url(#paint1_linear_507_368)"/>
<path d="M-1.79016 36.0898C0.539838 27.3798 6.43984 39.5698 5.18984 47.9498C6.42984 45.2698 7.95984 42.1398 9.73984 38.8198C9.95984 38.4098 10.1798 38.0098 10.3998 37.6098C9.11984 36.3598 3.49984 30.2097 7.28984 21.7897C10.8898 13.7997 14.6398 25.8298 12.4798 33.9298C14.5798 30.3398 16.6998 27.0898 18.8298 24.1798C17.4998 22.6398 12.6698 16.2198 16.9598 8.2798C21.2198 0.399799 24.1198 13.3698 21.0698 21.2598C23.8598 17.7898 26.6698 14.9098 29.4698 12.6498C30.0898 9.65979 32.4598 2.64976 41.0298 0.73976C51.5498 -1.61024 39.8198 12.8798 30.4698 13.9598C27.6898 16.1998 25.0598 18.9697 22.6098 21.9797C30.4498 18.6697 43.8898 21.3997 35.9498 25.7897C28.8098 29.7397 22.8198 26.2898 20.5598 24.6198C17.6198 28.5598 15.0098 32.7398 12.8398 36.5598C20.2898 32.1698 36.0998 34.9598 27.6398 39.6398C20.0998 43.8098 13.8398 39.7298 11.9098 38.2098C11.6598 38.6698 11.3998 39.1298 11.1598 39.5798C9.10984 43.3898 7.38984 46.9698 6.07984 49.8698C12.6898 44.3098 28.5898 44.3098 21.1198 50.3698C14.3298 55.8898 7.31984 52.7797 5.27984 51.6597C3.87984 54.8297 -0.510162 68.6797 -0.520162 68.7197L-2.05016 68.1398C-2.03016 68.0998 2.33984 54.2898 3.71984 51.1698C2.13984 50.0098 -4.14016 44.8598 -1.79016 36.0898Z" fill="url(#paint2_linear_507_368)"/>
<path d="M21.1196 92.0896C19.6096 84.6796 28.5996 91.6495 30.8096 98.4095C30.7396 95.9395 30.7096 93.0095 30.8096 89.8595C30.8196 89.4695 30.8396 89.0896 30.8496 88.6996C29.4196 88.2396 22.8996 85.6996 22.5896 77.9596C22.2996 70.6196 29.6196 78.2695 31.0296 85.1595C31.2596 81.6795 31.6396 78.4395 32.1496 75.4695C30.5696 74.8095 24.5496 71.7696 24.7896 64.2096C25.0296 56.7096 32.0696 65.3796 32.7396 72.4396C33.5296 68.7896 34.5596 65.5895 35.8196 62.8495C35.1696 60.3695 34.3096 54.2195 40.0296 49.5995C47.0496 43.9195 43.6696 59.1796 37.0596 63.4596C35.8196 66.1796 34.8696 69.2395 34.1696 72.4095C38.8196 67.0095 49.9296 64.0596 45.6196 70.3196C41.7396 75.9396 35.9496 75.5795 33.6296 75.1595C32.8996 79.2195 32.4996 83.3296 32.2996 87.0096C36.2496 80.9396 49.1596 77.1596 44.5696 83.8196C40.4796 89.7596 34.2396 89.0196 32.2196 88.5896C32.1996 89.0296 32.1796 89.4696 32.1696 89.8896C32.0596 93.5196 32.1096 96.8496 32.2096 99.5196C35.0896 92.8796 47.0196 86.9696 43.6896 94.3096C40.6596 100.98 34.2296 101.25 32.2796 101.17C32.4196 104.08 34.3096 116.12 34.3096 116.15L32.9396 116.28C32.9396 116.24 31.0496 104.23 30.9096 101.37C29.2896 101.1 22.6396 99.5596 21.1196 92.0896Z" fill="url(#paint3_linear_507_368)"/>
<path d="M366.75 36.5694C364.83 28.2794 358.89 39.6194 359.8 47.5694C358.72 45.0094 357.37 41.9994 355.8 38.8194C355.6 38.4294 355.41 38.0494 355.21 37.6594C356.45 36.5194 361.93 30.8694 358.63 22.8094C355.49 15.1594 351.58 26.4094 353.37 34.1194C351.5 30.6694 349.61 27.5394 347.69 24.7394C348.99 23.3294 353.73 17.3995 349.94 9.77947C346.18 2.21947 343.04 14.3794 345.66 21.9194C343.14 18.5594 340.59 15.7694 338.02 13.5494C337.53 10.7094 335.52 4.01941 327.51 1.96941C317.67 -0.550588 328.27 13.4694 337.04 14.7494C339.58 16.9494 341.98 19.6294 344.19 22.5494C336.91 19.1994 324.17 21.3895 331.51 25.7695C338.11 29.6995 343.86 26.6194 346.04 25.0994C348.69 28.9094 351.02 32.9195 352.94 36.5895C346.06 32.2295 331.09 34.4195 338.9 39.0795C345.87 43.2395 351.89 39.5594 353.76 38.1794C353.98 38.6194 354.21 39.0594 354.42 39.4894C356.23 43.1494 357.74 46.5694 358.89 49.3494C352.84 43.9094 337.87 43.4495 344.71 49.3995C350.93 54.8095 357.63 52.0694 359.59 51.0694C360.81 54.1094 364.51 67.2995 364.52 67.3395L365.98 66.8395C365.97 66.7995 362.27 53.6395 361.08 50.6495C362.61 49.5995 368.69 44.9194 366.75 36.5694Z" fill="url(#paint4_linear_507_368)"/>
<path d="M93.7699 98.9596C95.3699 91.1496 85.8799 98.4896 83.5499 105.63C83.6299 103.02 83.6499 99.9296 83.5499 96.6096C83.5399 96.1996 83.5199 95.7996 83.4999 95.3896C85.0099 94.8996 91.8799 92.2296 92.2099 84.0696C92.5199 76.3296 84.7999 84.3896 83.3099 91.6596C83.0599 87.9896 82.6699 84.5796 82.1299 81.4396C83.7899 80.7396 90.1499 77.5396 89.8899 69.5696C89.6299 61.6596 82.2099 70.7996 81.5099 78.2496C80.6699 74.3996 79.5899 71.0296 78.2599 68.1396C78.9499 65.5196 79.8499 59.0396 73.8199 54.1696C66.4199 48.1896 69.9799 64.2696 76.9599 68.7796C78.2699 71.6496 79.2699 74.8696 80.0099 78.2196C75.1099 72.5196 63.3899 69.4196 67.9399 76.0096C72.0299 81.9396 78.1399 81.5496 80.5799 81.1096C81.3499 85.3896 81.7699 89.7196 81.9799 93.5996C77.8099 87.1996 64.1999 83.2196 69.0399 90.2396C73.3599 96.4996 79.9299 95.7196 82.0599 95.2696C82.0799 95.7296 82.0999 96.1996 82.1099 96.6396C82.2299 100.47 82.1699 103.97 82.0699 106.79C79.0399 99.7896 66.4499 93.5596 69.9599 101.3C73.1599 108.34 79.9299 108.62 81.9899 108.53C81.8399 111.59 79.8499 124.29 79.8499 124.33L81.2899 124.47C81.2899 124.43 83.2799 111.77 83.4299 108.75C85.1499 108.46 92.1599 106.84 93.7699 98.9596Z" fill="url(#paint5_linear_507_368)"/>
<defs>
<linearGradient id="paint0_linear_507_368" x1="275.526" y1="78.5821" x2="304.746" y2="78.5821" gradientUnits="userSpaceOnUse">
<stop offset="0.0016121" stop-color="#92DBCA"/>
<stop offset="1" stop-color="#56B1AF"/>
</linearGradient>
<linearGradient id="paint1_linear_507_368" x1="320.539" y1="83.1286" x2="342.342" y2="83.1286" gradientUnits="userSpaceOnUse">
<stop stop-color="#FFC2D6"/>
<stop offset="1" stop-color="#FFA0AC"/>
</linearGradient>
<linearGradient id="paint2_linear_507_368" x1="-2.31146" y1="34.5967" x2="45.1957" y2="34.5967" gradientUnits="userSpaceOnUse">
<stop offset="0.0016121" stop-color="#E4D099"/>
<stop offset="0.9967" stop-color="#FFB380"/>
</linearGradient>
<linearGradient id="paint3_linear_507_368" x1="20.9492" y1="82.3097" x2="46.5941" y2="82.3097" gradientUnits="userSpaceOnUse">
<stop offset="0.0016121" stop-color="#92DBCA"/>
<stop offset="1" stop-color="#56B1AF"/>
</linearGradient>
<linearGradient id="paint4_linear_507_368" x1="323.556" y1="34.5021" x2="367.125" y2="34.5021" gradientUnits="userSpaceOnUse">
<stop stop-color="#9DB8D6"/>
<stop offset="1" stop-color="#9D92D0"/>
</linearGradient>
<linearGradient id="paint5_linear_507_368" x1="66.9054" y1="88.6471" x2="93.9457" y2="88.6471" gradientUnits="userSpaceOnUse">
<stop offset="0.0016121" stop-color="#BFDD9B"/>
<stop offset="1" stop-color="#68BB80"/>
</linearGradient>
</defs>
</svg>
