<svg width="41" height="42" viewBox="0 0 41 42" fill="none" xmlns="http://www.w3.org/2000/svg">
<path d="M31.99 24.9396C31.18 27.4396 29.77 29.5796 27.99 31.2396C25.83 32.4696 23.33 33.1596 20.67 33.1596C18.01 33.1596 15.58 32.4796 13.44 31.2896C11.61 29.6196 10.17 27.4496 9.35002 24.9196C8.54002 22.4196 8.42002 19.8596 8.89002 17.4496C9.92002 15.1996 11.53 13.1596 13.69 11.5996C15.82 10.0596 18.21 9.14961 20.65 8.84961C23.11 9.13961 25.54 10.0396 27.7 11.5996C29.81 13.1396 31.41 15.1396 32.45 17.3696C32.93 19.8196 32.83 22.3996 32.01 24.9296L31.99 24.9396Z" fill="white"/>
<path d="M29.18 9.46965C26.88 9.51965 25.27 9.30965 20.64 9.21965C18.26 9.16965 15.95 10.3896 13.88 11.8896C11.78 13.3996 10.22 15.3796 9.21998 17.5696C8.82998 14.4796 10.1 11.6896 12.09 9.52965C13.87 7.60965 16.45 4.13965 20.63 4.13965C24.81 4.13965 27.43 7.57965 29.18 9.47965V9.46965Z" fill="#FFBACE"/>
<path d="M13.64 30.9998C10.66 30.1498 8.29 28.3698 6.85 25.7998C5.57 23.5098 3.07 20.2298 4.37 15.9998C5.67 11.7698 9.75 10.6098 12.08 9.50977C10.08 11.6698 9.72999 14.9198 9.20999 17.5498C8.74999 19.8898 8.87 22.3798 9.65 24.8098C10.45 27.2598 11.85 29.3698 13.63 30.9998H13.64Z" fill="#FF98A4"/>
<path d="M27.78 30.9496C26.41 33.4196 23.61 35.2396 20.73 35.8196C18.16 36.3296 14.1 37.4196 10.67 35.1196C7.23998 32.8196 7.17999 28.3696 6.85999 25.8096C8.29999 28.3796 11.29 29.6996 13.65 31.0096C15.73 32.1696 18.12 32.8296 20.68 32.8296C23.24 32.8296 25.7 32.1596 27.8 30.9596L27.78 30.9496Z" fill="#95B0CE"/>
<path d="M34.52 25.7202C34.22 28.3202 33.89 32.5702 30.77 35.0602C27.65 37.5502 23.27 36.3102 20.73 35.8202C23.61 35.2502 25.81 32.8002 27.78 30.9502C29.51 29.3402 30.88 27.2502 31.67 24.8302C32.47 22.3802 32.57 19.8602 32.1 17.4902C33.8 19.2602 34.86 22.8002 34.51 25.7202H34.52Z" fill="#8AD3C2"/>
<path d="M34.52 25.7198C34.86 22.7998 33.24 19.9298 32.11 17.4898C31.11 15.3298 29.54 13.3898 27.5 11.8898C25.4 10.3798 23.04 9.49976 20.65 9.21976C23.32 8.89976 26.53 8.23976 29.19 9.46976C31.57 10.5598 35.69 12.2198 36.94 15.8998C38.19 19.5798 35.78 23.4598 34.53 25.7198H34.52Z" fill="#DCC891"/>
<path d="M10.66 35.1198C7.04003 33.4598 3.17004 31.1598 1.94004 27.4298C0.710035 23.6898 2.45004 19.4898 4.37004 16.0098C4.31004 16.6498 4.26004 17.2898 4.26004 17.9398C4.26004 20.8498 5.57003 23.5198 6.85004 25.7998C7.17004 28.3698 7.66003 31.2098 9.35003 33.5398C9.76003 34.0998 10.19 34.6198 10.66 35.1198Z" fill="#958AC8"/>
<path d="M30.78 35.0596C28.09 37.9796 24.69 40.9796 20.74 40.9896C16.8 40.9996 13.38 38.0296 10.66 35.1196C11.23 35.3896 11.84 35.6296 12.46 35.8296C15.23 36.7296 18.15 36.3296 20.72 35.8196C23.26 36.2996 26.15 36.6996 28.86 35.8096C29.52 35.5896 30.16 35.3496 30.77 35.0596H30.78Z" fill="#56A9A7"/>
<path d="M39.44 27.3097C38.23 31.0597 34.38 33.3696 30.77 35.0597C31.2 34.5897 31.62 34.0897 32 33.5597C33.72 31.2097 34.21 28.3296 34.52 25.7197C35.78 23.4597 37.06 20.8196 37.06 17.9396C37.06 17.2496 37.01 16.5696 36.93 15.8896C38.87 19.3696 40.64 23.5496 39.43 27.2996L39.44 27.3097Z" fill="#80B380"/>
<path d="M20.62 4.13045C19.98 4.26045 19.36 4.41045 18.74 4.61045C15.97 5.51045 13.86 7.60045 12.08 9.51045C9.73999 10.6205 7.15998 11.9505 5.46998 14.2705C5.05998 14.8305 4.68999 15.4005 4.35999 16.0005C4.82999 12.0405 5.83999 7.68045 9.01999 5.35045C12.2 3.02045 16.69 3.36045 20.61 4.12045L20.62 4.13045Z" fill="#FF7A7F"/>
<path d="M36.94 15.8998C36.62 15.3398 36.28 14.7898 35.89 14.2698C34.19 11.9198 31.57 10.5598 29.19 9.46985C27.42 7.57985 25.33 5.52985 22.61 4.63985C21.95 4.41985 21.29 4.25985 20.63 4.12985C24.53 3.33985 29.03 2.97985 32.22 5.28985C35.41 7.58985 36.45 11.9498 36.95 15.8998H36.94Z" fill="#FFAB80"/>
<path d="M4.36996 16.0104C2.44996 19.4904 1.16996 23.5704 1.93996 27.4304C0.169959 23.6404 -0.220041 19.2204 1.17996 14.9504C2.54996 10.7104 5.43996 7.38035 9.02996 5.36035C6.14996 8.04035 4.83996 12.0404 4.36996 16.0104Z" fill="#805280"/>
<path d="M20.7399 40.9897C16.6099 41.4997 12.2799 40.5097 8.63994 37.8597C5.02994 35.2397 2.75994 31.4697 1.93994 27.4297C3.59994 30.9897 7.03994 33.4497 10.6599 35.1197C13.3799 38.0297 16.8199 40.5297 20.7399 40.9897Z" fill="#8075A5"/>
<path d="M39.44 27.3096C38.65 31.3996 36.37 35.2096 32.73 37.8596C29.12 40.4796 24.84 41.4696 20.74 40.9996C24.65 40.5196 28.08 37.9896 30.78 35.0696C34.39 33.3796 37.81 30.8996 39.45 27.3196L39.44 27.3096Z" fill="#2E8E80"/>
<path d="M39.44 27.31C40.2 23.45 38.88 19.38 36.94 15.9C36.44 11.95 35.11 7.96004 32.21 5.29004C35.86 7.31004 38.77 10.66 40.16 14.93C41.53 19.16 41.16 23.54 39.44 27.31Z" fill="#548658"/>
<path d="M32.21 5.28953C28.77 3.37953 24.52 3.34953 20.62 4.12953C16.71 3.36953 12.46 3.42953 9.03003 5.35953C12.07 2.50953 16.16 0.769531 20.66 0.769531C25.16 0.769531 29.17 2.48953 32.21 5.27953V5.28953Z" fill="#FF8A52"/>
</svg>
