<!-- <svg width="360" height="110" viewBox="0 0 360 110" fill="none" xmlns="http://www.w3.org/2000/svg"> -->
<svg width="759" height="276" viewBox="0 0 759 276" fill="none" xmlns="http://www.w3.org/2000/svg">
<path d="M597.234 218.801C596.558 212.101 595.903 204.161 595.514 195.601C595.473 194.535 595.432 193.491 595.391 192.448L595.369 191.891L594.83 191.751C591.238 190.817 574.77 185.509 572.485 165.017C572.213 162.573 572.29 160.799 572.601 159.581C572.91 158.368 573.419 157.804 573.948 157.574C574.5 157.334 575.286 157.36 576.341 157.798C577.386 158.232 578.592 159.031 579.888 160.154C585.091 164.661 591.225 173.923 593.65 182.982L595.124 182.78C595.022 173.288 595.288 164.446 595.984 156.275L596.033 155.698L595.486 155.505C591.494 154.093 576.121 147.33 575.239 127.18L575.239 127.18C575.128 124.666 575.334 122.881 575.741 121.691C576.145 120.511 576.705 120.015 577.261 119.851C577.856 119.676 578.683 119.806 579.753 120.39C580.81 120.967 582.001 121.934 583.253 123.236C588.279 128.46 593.834 138.589 595.358 147.955L596.843 147.927C598.089 137.877 600.029 128.995 602.616 121.319L602.695 121.084L602.619 120.849C600.513 114.334 597.22 98.1641 610.344 84.6478L610.345 84.6477C612.375 82.5557 613.988 81.4641 615.21 81.075C615.809 80.8843 616.286 80.8713 616.667 80.9638C617.042 81.0551 617.378 81.2622 617.681 81.605C618.311 82.3185 618.772 83.5983 618.978 85.4203C619.18 87.2175 619.122 89.4364 618.812 91.9153C618.192 96.8714 616.576 102.774 614.14 108.244C611.699 113.724 608.465 118.705 604.648 121.881L604.484 122.017L604.416 122.219C601.832 129.944 600.058 138.527 598.925 147.339L600.291 147.853C605.487 140.143 614.819 133.702 621.624 131.421C623.318 130.853 624.816 130.557 626.029 130.546C627.252 130.536 628.081 130.815 628.572 131.277C629.038 131.717 629.338 132.456 629.205 133.709C629.071 134.975 628.5 136.677 627.326 138.882C618.941 154.615 604.712 154.897 598.927 154.288L598.171 154.209L598.101 154.966C597.072 166.202 596.908 177.476 597.154 187.54L598.575 187.858C600.69 183.633 604.221 179.632 608.201 176.301C612.179 172.972 616.564 170.346 620.343 168.85C622.234 168.102 623.946 167.647 625.361 167.516C626.796 167.384 627.817 167.593 628.439 168.037C629.009 168.442 629.385 169.147 629.305 170.401C629.223 171.685 628.659 173.463 627.408 175.814C618.543 192.433 603.196 191.809 598.15 191.112L597.268 190.99L597.298 191.881L597.298 191.882C597.339 193.079 597.38 194.285 597.442 195.447C597.895 205.354 598.696 214.391 599.477 221.645L600.938 221.791C603.817 212.668 612.342 203.454 619.298 199.099C621.028 198.015 622.629 197.254 623.992 196.865C625.374 196.471 626.397 196.492 627.065 196.809C627.671 197.097 628.149 197.709 628.27 198.961C628.393 200.241 628.125 202.095 627.276 204.64L627.276 204.64C621.168 222.987 605.504 225.065 600.682 225.282L599.875 225.319L599.971 226.121C600.836 233.327 606.858 260.788 607.944 265.708L606.01 266.087C605.966 265.887 605.913 265.648 605.852 265.372C605.653 264.468 605.369 263.171 605.026 261.594C604.339 258.439 603.415 254.16 602.463 249.643C600.553 240.589 598.541 230.634 598.074 226.807L598.001 226.21L597.403 226.152C593.404 225.76 576.832 223.097 571.623 203.617C570.972 201.181 570.793 199.382 570.94 198.119C571.086 196.866 571.535 196.236 572.064 195.935C572.624 195.617 573.476 195.55 574.655 195.868C575.822 196.182 577.203 196.846 578.715 197.824C584.786 201.747 592.4 210.346 595.788 219.146L597.234 218.801Z" stroke="black" stroke-width="1.5"/>
<path d="M1.79593 79.305L1.796 79.3047C2.38379 76.9253 3.06675 75.3397 3.76747 74.3782C4.45822 73.4304 5.09429 73.1739 5.63782 73.2073C6.23819 73.2442 6.98196 73.6448 7.82729 74.5576C8.65866 75.4553 9.50456 76.7599 10.3124 78.3934C13.5554 84.9505 15.909 96.2271 14.6486 105.377L16.0813 105.774C18.6213 99.8295 21.7552 92.8871 25.4007 85.5242C25.8503 84.617 26.3001 83.7314 26.7518 82.842L26.9911 82.3709L26.628 81.9871C24.0481 79.2588 12.797 65.9112 20.3936 47.6359C21.3011 45.455 22.1852 44.0299 22.9988 43.1946C23.8035 42.3684 24.4587 42.1915 24.9781 42.2808C25.5422 42.3777 26.1935 42.8265 26.8782 43.7744C27.5527 44.7082 28.1892 46.0318 28.7491 47.671C30.9962 54.2497 31.8049 65.2863 29.6232 74.1455L31.0114 74.6814C35.3106 66.7227 39.6484 59.5223 44.0037 53.079L44.3125 52.6223L43.9687 52.1913C41.284 48.8251 31.6185 34.8926 40.216 17.6619C41.2901 15.5104 42.286 14.1466 43.1645 13.3871C44.0276 12.6408 44.6923 12.5403 45.2129 12.6985C45.7911 12.8743 46.4301 13.4361 47.0576 14.5129C47.6747 15.5718 48.2199 17.0261 48.6597 18.7889C50.4249 25.8652 50.3486 37.302 47.2728 45.9182L48.5813 46.6174C54.2825 38.9391 60.0135 32.5816 65.7104 27.6024L65.9049 27.4324L65.9534 27.1787C67.2117 20.6078 71.9798 5.43632 89.1152 1.30091L89.1155 1.30082C91.7669 0.659463 93.6028 0.624487 94.7902 0.958393C95.3724 1.12211 95.7797 1.36896 96.0613 1.65979C96.3409 1.94862 96.5299 2.31494 96.6245 2.77308C96.8195 3.71778 96.6067 5.03315 95.9359 6.65212C95.2727 8.25248 94.198 10.0631 92.7928 11.9548C89.983 15.7372 85.9075 19.7691 81.3515 23C76.7877 26.2364 71.803 28.6257 67.1758 29.2045L66.9485 29.2329L66.7759 29.3836C61.0196 34.406 55.5875 40.6043 50.5398 47.3196L51.4512 48.4523C59.3215 44.8542 70.0589 44.535 76.7785 46.312C78.4504 46.7541 79.8357 47.3166 80.8524 47.9641C81.8775 48.6168 82.4542 49.3072 82.6549 49.9787C82.8451 50.6148 82.7421 51.386 82.0656 52.3348C81.3765 53.3011 80.1232 54.3993 78.1292 55.5931L78.1291 55.5932C63.8949 64.1204 51.9659 56.7037 47.4011 53.0511L46.7721 52.5478L46.315 53.2111C40.26 61.998 34.8887 71.314 30.4261 79.8207L29.1156 82.3188L31.4937 80.8014C35.1933 78.4407 39.9709 77.0238 44.8218 76.4046C49.669 75.7858 54.531 75.971 58.3668 76.7675C60.2857 77.166 61.921 77.712 63.1614 78.3684C64.4158 79.0322 65.1827 79.7639 65.5044 80.489C65.8018 81.1593 65.7734 81.9486 65.1391 82.9247C64.4841 83.9327 63.2029 85.0959 61.0761 86.3699C46.046 95.3711 33.5748 86.5965 29.6685 83.2651L28.9406 82.6443L28.5115 83.4993C28.3071 83.9066 28.0956 84.3212 27.8836 84.7368C27.5737 85.3445 27.2626 85.9545 26.9706 86.5473C22.7553 95.0307 19.2191 103.001 16.5258 109.457L17.723 110.3C21.0112 107.305 25.4881 105.033 30.1492 103.527C34.8076 102.022 39.5963 101.301 43.4719 101.368C45.411 101.402 47.0929 101.633 48.4045 102.045C49.7314 102.462 50.5854 103.034 51.0066 103.676C51.3958 104.27 51.4967 105.05 51.025 106.138C50.5399 107.257 49.466 108.643 47.5867 110.294L47.5861 110.294C34.0413 122.218 20.0785 115.528 15.9596 113.079L15.2108 112.634L14.8818 113.44C13.4291 117.002 10.4471 126.498 7.83803 135.068C5.72989 141.993 3.84309 148.386 3.18803 150.623L1.44713 149.909C1.49919 149.733 1.56112 149.523 1.63219 149.283L1.65796 149.196C1.91261 148.335 2.27723 147.102 2.72246 145.603C3.61294 142.607 4.82575 138.547 6.12563 134.274C8.73167 125.708 11.6698 116.345 13.0693 112.918L13.282 112.398L12.8417 112.048C9.65607 109.515 -2.91509 98.3428 1.79593 79.305ZM88.9409 0.578658V0.578674V0.578658Z" stroke="#1B8D36" stroke-width="1.5"/>
<path d="M70.0083 198.657C69.7822 206.741 69.885 214.156 70.0907 220.101L71.5364 220.354C74.4086 213.183 81.8549 206.331 87.7412 203.304C89.2041 202.551 90.5362 202.054 91.6479 201.839C92.779 201.621 93.5698 201.716 94.0536 201.999C94.481 202.248 94.8179 202.733 94.8407 203.724C94.8642 204.745 94.5437 206.21 93.7068 208.207C87.6756 222.584 74.9155 223.165 71.0171 222.992L70.1982 222.956L70.2346 223.775C70.3801 227.05 71.4277 235.396 72.4311 242.885C72.9342 246.64 73.4282 250.194 73.7964 252.814C73.9806 254.124 74.1332 255.2 74.2399 255.951L74.2984 256.363L72.9809 256.498C72.9612 256.36 72.9389 256.203 72.9141 256.028L72.9136 256.024L72.913 256.02C72.8064 255.27 72.654 254.197 72.4704 252.893C72.1024 250.28 71.6089 246.739 71.1064 243.002C70.0987 235.508 69.0635 227.288 68.9217 224.152L68.8947 223.554L68.3057 223.448C65.0711 222.864 51.8491 219.549 48.8194 203.426L48.8194 203.426C48.4399 201.409 48.4063 199.957 48.5975 198.966C48.7864 197.987 49.1693 197.56 49.5582 197.381C49.982 197.186 50.6346 197.179 51.5599 197.516C52.4712 197.848 53.541 198.476 54.7044 199.373C59.3785 202.974 65.0292 210.472 67.2493 217.825L68.717 217.589C68.5736 212.11 68.5122 205.613 68.7169 198.631L68.717 198.627C68.7272 198.199 68.7424 197.776 68.7578 197.347L68.7579 197.345C68.7732 196.919 68.7888 196.487 68.7991 196.049L68.8121 195.503L68.296 195.323C65.4458 194.33 52.4669 188.856 51.8484 172.138C51.7755 170.141 51.9461 168.726 52.2643 167.782C52.5805 166.844 53.0031 166.471 53.3863 166.342C53.7954 166.205 54.3917 166.264 55.2087 166.689C56.0147 167.108 56.9349 167.832 57.915 168.832C61.8511 172.848 66.2618 180.791 67.6818 188.304L69.1673 188.211C69.638 180.499 70.4154 173.323 71.4578 166.75L71.5474 166.185L71.0262 165.949C67.8718 164.522 55.8845 157.967 56.3632 141.633C56.4236 139.591 56.6974 138.177 57.0889 137.264C57.4759 136.361 57.9282 136.047 58.3258 135.967C58.7658 135.878 59.3926 136.019 60.2161 136.563C61.0253 137.097 61.9251 137.957 62.8596 139.098C66.6133 143.68 70.507 152.277 71.1807 159.965L72.6633 160.046C74.2767 151.974 76.377 144.914 78.9387 138.882L79.0356 138.654L78.9773 138.412C77.6632 132.983 75.9684 119.692 87.3815 109.71L87.3819 109.71C89.1505 108.16 90.5034 107.407 91.4832 107.187C91.9606 107.079 92.322 107.104 92.5973 107.196C92.8684 107.288 93.1084 107.463 93.3202 107.745C93.7651 108.339 94.0605 109.38 94.1171 110.865C94.1727 112.325 93.9936 114.112 93.5939 116.097C92.7949 120.065 91.1328 124.731 88.8336 128.988C86.5298 133.254 83.6209 137.046 80.3624 139.33L80.1855 139.454L80.1017 139.653C77.5333 145.754 75.5711 152.603 74.1275 159.683L75.4494 160.299C80.1099 154.439 88.0466 149.886 93.6821 148.523C95.0837 148.184 96.3027 148.053 97.2686 148.128C98.2449 148.205 98.8639 148.484 99.2043 148.861C99.5228 149.213 99.7194 149.789 99.5421 150.768C99.3623 151.761 98.8071 153.086 97.7266 154.785C90.0109 166.887 78.5373 166.117 73.8985 165.207L73.1408 165.059L73.0143 165.821C71.5104 174.878 70.6873 184.04 70.2758 192.238L71.6677 192.662C73.6244 189.406 76.7145 186.424 80.1358 184.01C83.555 181.597 87.2598 179.784 90.4018 178.842C91.9744 178.371 93.3778 178.126 94.518 178.12C95.6764 178.114 96.4554 178.353 96.9004 178.728C97.2975 179.063 97.5518 179.611 97.4163 180.586C97.2765 181.593 96.7241 182.974 95.5716 184.785L95.5714 184.785C87.4408 197.572 75.0741 195.989 71.0292 195.056L70.1493 194.853L70.1114 195.756L70.1112 195.761C70.0703 196.735 70.029 197.717 70.0083 198.657ZM70.0083 198.657C70.0084 198.656 70.0084 198.656 70.0084 198.655L70.7581 198.676L70.0083 198.659C70.0083 198.659 70.0083 198.658 70.0083 198.657Z" stroke="black" stroke-width="1.5"/>
<path d="M756.618 80.3485L756.618 80.349C760.502 98.4509 748.349 108.589 745.269 110.878L744.819 111.212L745.012 111.738C746.219 115.022 748.718 123.954 750.928 132.122C752.03 136.196 753.057 140.066 753.81 142.923C754.186 144.351 754.494 145.526 754.708 146.347C754.773 146.596 754.829 146.81 754.875 146.988L753.293 147.575C752.735 145.429 751.152 139.375 749.372 132.794C747.163 124.627 744.628 115.57 743.362 112.152L743.059 111.335L742.296 111.756C738.342 113.941 725.024 119.822 712.637 108.156C710.919 106.537 709.953 105.196 709.532 104.13C709.123 103.094 709.243 102.372 709.617 101.836C710.024 101.253 710.834 100.743 712.091 100.391C713.332 100.044 714.918 99.877 716.742 99.9048C720.387 99.9603 724.871 100.79 729.209 102.354C733.551 103.92 737.695 106.203 740.699 109.128L741.923 108.323C739.558 102.133 736.454 94.5195 732.732 86.3704C732.473 85.7963 732.195 85.2046 731.918 84.616C731.735 84.2255 731.552 83.8365 731.376 83.4549L730.974 82.5858L730.227 83.1834C726.444 86.2064 714.475 94.1022 700.607 85.1394L700.607 85.1393C698.647 83.8724 697.482 82.7385 696.9 81.7738C696.338 80.8414 696.338 80.1087 696.631 79.4987C696.95 78.8354 697.684 78.1733 698.881 77.5868C700.063 77.0071 701.615 76.5423 703.431 76.2251C707.06 75.591 711.639 75.5649 716.181 76.2976C720.726 77.0308 725.178 78.5146 728.588 80.8545L730.915 82.452L729.687 79.9099C725.738 71.7348 720.942 62.7962 715.483 54.2982L715.046 53.6175L714.401 54.105C710.004 57.4241 698.576 64.031 685.442 55.5626C683.601 54.3731 682.458 53.2992 681.841 52.3703C681.235 51.459 681.165 50.7386 681.358 50.1575C681.562 49.5422 682.115 48.915 683.093 48.3332C684.064 47.7563 685.379 47.2693 686.963 46.9042C693.332 45.4365 703.423 46.0716 710.722 49.7084L711.671 48.6075C707.115 42.0887 702.156 36.0907 696.897 31.1574L696.728 30.9996L696.501 30.9636C692.171 30.2793 687.552 27.876 683.349 24.6825C679.155 21.4949 675.435 17.5655 672.9 13.9108C671.632 12.0831 670.674 10.343 670.097 8.8152C669.513 7.26849 669.354 6.02871 669.562 5.15419C669.663 4.73106 669.848 4.39854 670.114 4.14097C670.381 3.88152 670.764 3.66436 671.311 3.52932C672.429 3.25347 674.149 3.34101 676.626 4.02805L676.627 4.02808C692.617 8.45962 696.66 22.9173 697.654 29.1558L697.694 29.4098L697.882 29.5855C703.109 34.4747 708.308 40.6314 713.456 48.0642L714.787 47.408C712.147 39.1816 712.41 28.3886 714.276 21.7694C714.741 20.1208 715.296 18.7687 715.905 17.7927C716.525 16.7989 717.134 16.2999 717.667 16.1563C718.141 16.0285 718.749 16.1344 719.533 16.8597C720.332 17.5986 721.227 18.9112 722.174 20.9734L722.856 20.6604L722.174 20.9735C729.76 37.489 720.286 50.3418 717.667 53.4174L717.309 53.8381L717.605 54.3049C721.529 60.5019 725.395 67.4347 729.224 75.0831L730.628 74.5901C728.821 66.165 729.898 55.7781 732.2 49.6451C732.773 48.1173 733.409 46.8921 734.067 46.0365C734.736 45.167 735.353 44.7751 735.869 44.7039C736.341 44.6388 736.94 44.8162 737.67 45.6165C738.407 46.4258 739.196 47.7942 739.987 49.8802C746.593 67.352 735.636 79.5984 733.141 82.0822L732.766 82.456L732.992 82.9347C733.197 83.3662 733.396 83.7923 733.596 84.2204C733.795 84.6463 733.996 85.0741 734.201 85.5077C737.415 92.5578 740.179 99.2315 742.391 104.908L743.835 104.556C742.919 95.8842 745.463 85.3173 748.705 79.2333C749.512 77.7179 750.344 76.5163 751.15 75.6985C751.969 74.866 752.671 74.5205 753.22 74.5048C753.712 74.4906 754.292 74.7403 754.911 75.6501C755.539 76.5734 756.134 78.086 756.618 80.3485Z" stroke="black" stroke-width="1.5"/>
<path d="M196.43 218.691L196.43 218.692C193.216 235.726 179.255 239.219 175.813 239.848L175.226 239.955L175.199 240.551C175.047 243.865 173.955 252.536 172.893 260.435C172.364 264.374 171.844 268.107 171.457 270.861C171.263 272.238 171.102 273.37 170.99 274.161L170.915 274.692C170.914 274.693 170.914 274.694 170.914 274.696L169.451 274.542C169.47 274.413 169.49 274.269 169.512 274.111L169.52 274.056C169.632 273.263 169.793 272.126 169.987 270.744C170.375 267.978 170.895 264.228 171.425 260.268C172.482 252.367 173.586 243.572 173.742 240.131L173.779 239.309L172.957 239.348C168.836 239.543 155.378 238.939 148.998 223.741C148.115 221.632 147.775 220.081 147.8 218.996C147.825 217.941 148.186 217.414 148.653 217.141C149.177 216.836 150.025 216.737 151.222 216.967C152.401 217.194 153.81 217.72 155.356 218.514C161.573 221.709 169.435 228.938 172.461 236.508L173.907 236.255C174.112 229.979 174.236 222.186 173.989 213.657C173.968 212.672 173.927 211.621 173.886 210.601L173.85 209.698L172.969 209.9C168.698 210.877 155.653 212.549 147.051 199.051C145.834 197.14 145.248 195.678 145.099 194.609C144.955 193.571 145.225 192.977 145.657 192.613C146.137 192.208 146.97 191.955 148.195 191.961C149.402 191.967 150.886 192.225 152.546 192.722C155.864 193.716 159.775 195.628 163.384 198.173C166.996 200.719 170.26 203.867 172.33 207.307L173.721 206.882C173.289 198.24 172.425 188.589 170.839 179.042L170.713 178.281L169.956 178.429C165.069 179.384 152.939 180.219 144.793 167.43L144.793 167.429C143.651 165.638 143.061 164.238 142.87 163.185C142.681 162.147 142.888 161.527 143.234 161.144C143.602 160.736 144.267 160.44 145.302 160.359C146.326 160.278 147.616 160.418 149.097 160.776C155.048 162.214 163.425 167.016 168.342 173.21L169.665 172.593C168.139 165.114 166.074 157.909 163.362 151.475L163.278 151.276L163.101 151.152C159.652 148.739 156.578 144.738 154.145 140.24C151.717 135.751 149.962 130.83 149.118 126.644C148.696 124.55 148.507 122.663 148.565 121.119C148.625 119.552 148.937 118.444 149.413 117.808C149.641 117.504 149.901 117.314 150.196 117.214C150.495 117.113 150.883 117.087 151.392 117.201C152.435 117.435 153.867 118.232 155.733 119.865L155.733 119.865C167.783 130.403 166.005 144.428 164.61 150.167L164.551 150.409L164.648 150.638C167.353 157.002 169.556 164.44 171.273 172.958L172.755 172.875C173.46 164.754 177.564 155.679 181.525 150.842C182.511 149.637 183.463 148.727 184.321 148.161C185.193 147.586 185.865 147.43 186.345 147.527C186.783 147.616 187.27 147.961 187.682 148.921C188.099 149.891 188.389 151.389 188.455 153.545C188.974 170.788 176.292 177.699 172.969 179.216L172.45 179.453L172.539 180.016C173.643 186.967 174.441 194.52 174.953 202.656L176.439 202.748C177.941 194.813 182.597 186.432 186.754 182.193C187.789 181.138 188.763 180.371 189.618 179.927C190.484 179.478 191.124 179.411 191.57 179.561C191.99 179.703 192.443 180.11 192.778 181.106C193.115 182.108 193.294 183.607 193.216 185.715C192.557 203.366 178.86 209.13 175.843 210.19L175.317 210.375L175.342 210.931L175.348 211.052C175.387 211.922 175.425 212.764 175.444 213.626L175.444 213.629C175.649 220.992 175.608 227.844 175.444 233.631L176.912 233.869C179.255 226.094 185.224 218.179 190.162 214.378C191.391 213.432 192.524 212.767 193.491 212.415C194.472 212.058 195.172 212.062 195.633 212.275C196.059 212.471 196.468 212.936 196.668 213.976C196.87 215.027 196.832 216.564 196.43 218.691Z" stroke="#1B8D36" stroke-width="1.5"/>
<path d="M650.19 176.841C659.621 192.929 671.787 190.573 675.691 189.295C675.822 190.511 675.957 191.699 676.082 192.875C677.106 202.832 677.746 211.957 678.148 219.292C670.976 201.214 646.029 185.626 654.258 205.582C658.078 214.857 663.281 219.487 667.965 221.762L690.568 218.63C694.302 214.8 697.784 208.537 698.465 198.344C699.812 177.919 683.561 197.512 680.697 216.203C680.293 209.405 679.689 201.375 678.798 192.727C678.688 191.656 678.572 190.612 678.455 189.556C681.178 188.213 693.526 180.923 692.414 159.658C691.357 139.486 678.561 160.867 677.301 179.844C676.066 170.305 674.608 161.441 672.933 153.304C675.906 151.404 687.163 142.763 684.991 122.021C682.84 101.437 670.834 125.605 671.084 145.017C668.694 135.048 665.947 126.309 662.849 118.852C663.593 112.016 663.907 95.0875 651.561 82.7024C636.393 67.4893 646.48 109.17 660.536 120.594C663.597 127.989 666.156 136.339 668.261 145.019C657.857 130.434 635.21 122.923 645.134 139.868C654.063 155.101 665.454 153.804 669.954 152.524C672.308 163.624 674.002 174.883 675.218 184.975C666.043 168.516 639.645 158.815 650.222 176.864L650.19 176.841Z" stroke="#1B8D36" stroke-width="1.5" stroke-miterlimit="10"/>
</svg>
